name Walk1.mot
datacolumns 19
datarows 25
range 3.41500000 3.53500000
endheader

                time	   L_ground_force_vx	   L_ground_force_vy	   L_ground_force_vz	   L_ground_force_px	   L_ground_force_py	   L_ground_force_pz	   R_ground_force_vx	   R_ground_force_vy	   R_ground_force_vz	   R_ground_force_px	   R_ground_force_py	   R_ground_force_pz	   L_ground_torque_x	   L_ground_torque_y	   L_ground_torque_z	   R_ground_torque_x	   R_ground_torque_y	   R_ground_torque_z	
          3.41500000	          8.33622907	        740.24871292	         50.36524684	         -0.24782034	          0.00000000	         -0.10201518	          0.00610157	          0.04703055	          0.01257870	          0.00005923	          0.00000000	          0.00003377	          0.00000000	          2.17424864	          0.00000000	          0.00000000	         -0.00200671	          0.00000000	
          3.42000000	         10.21476831	        743.92290181	         51.04283252	         -0.24617781	          0.00000000	         -0.10218408	          0.00698944	          0.08012653	          0.01802413	          0.00008631	          0.00000000	          0.00004902	          0.00000000	          2.16006176	          0.00000000	          0.00000000	         -0.00253558	          0.00000000	
          3.42500000	         12.14292303	        747.56230039	         51.74514065	         -0.24451995	          0.00000000	         -0.10234467	          0.00751198	          0.12185386	          0.02429273	          0.00011790	          0.00000000	          0.00006674	          0.00000000	          2.13900655	          0.00000000	          0.00000000	         -0.00304758	          0.00000000	
          3.43000000	         14.13329239	        751.19674419	         52.46787567	         -0.24285403	          0.00000000	         -0.10249589	          0.00740038	          0.17189462	          0.03107190	          0.00015262	          0.00000000	          0.00008616	          0.00000000	          2.11044743	          0.00000000	          0.00000000	         -0.00347013	          0.00000000	
          3.43500000	         16.19852104	        754.86013168	         53.20674120	         -0.24118725	          0.00000000	         -0.10263680	          0.00631368	          0.22872773	          0.03781115	          0.00018795	          0.00000000	          0.00010580	          0.00000000	          2.07445462	          0.00000000	          0.00000000	         -0.00370108	          0.00000000	
          3.44000000	         18.34978999	        758.58991262	         53.95734848	         -0.23952710	          0.00000000	         -0.10276658	          0.00384044	          0.28914357	          0.04365704	          0.00021985	          0.00000000	          0.00012339	          0.00000000	          2.03183062	          0.00000000	          0.00000000	         -0.00360477	          0.00000000	
          3.44500000	         20.59540845	        762.42650047	         54.71515549	         -0.23788129	          0.00000000	         -0.10288445	         -0.00048991	          0.34769529	          0.04738884	          0.00024248	          0.00000000	          0.00013559	          0.00000000	          1.98394400	          0.00000000	          0.00000000	         -0.00301002	          0.00000000	
          3.45000000	         22.93964915	        766.40760495	         55.47476586	         -0.23625837	          0.00000000	         -0.10299011	         -0.00718215	          0.39611906	          0.04736378	          0.00024787	          0.00000000	          0.00013791	          0.00000000	          1.93176534	          0.00000000	          0.00000000	         -0.00171135	          0.00000000	
          3.45500000	         25.38300723	        770.55901769	         56.22955003	         -0.23466633	          0.00000000	         -0.10308410	         -0.01673213	          0.42277751	          0.04148340	          0.00022571	          0.00000000	          0.00012451	          0.00000000	          1.87585533	          0.00000000	          0.00000000	          0.00052482	          0.00000000	
          3.46000000	         27.92276299	        774.89084114	         56.97147073	         -0.23311156	          0.00000000	         -0.10316723	         -0.02956064	          0.41220781	          0.02719760	          0.00016331	          0.00000000	          0.00008826	          0.00000000	          1.81659722	          0.00000000	          0.00000000	          0.00394714	          0.00000000	
          3.46500000	         30.55354937	        779.40025397	         57.69162143	         -0.23159865	          0.00000000	         -0.10323966	         -0.04591949	          0.34488883	          0.00156638	          0.00004586	          0.00000000	          0.00002084	          0.00000000	          1.75429119	          0.00000000	          0.00000000	          0.00879704	          0.00000000	
          3.47000000	         33.26782084	        784.07594192	         58.38145012	         -0.23013073	          0.00000000	         -0.10329973	         -0.06576600	          0.19737851	         -0.03859560	         -0.00014293	          0.00000000	         -0.00008686	          0.00000000	          1.68969874	          0.00000000	          0.00000000	          0.01527494	          0.00000000	
          3.47500000	         36.05720821	        788.89600003	         59.03441135	         -0.22871059	          0.00000000	         -0.10334453	         -0.08860344	         -0.05698840	         -0.09646346	         -0.00041971	          0.00000000	         -0.00024408	          0.00000000	          1.62409660	          0.00000000	          0.00000000	          0.02349263	          0.00000000	
          3.48000000	         38.91432048	        793.82745112	         59.64790741	         -0.22734093	          0.00000000	         -0.10337281	         -0.11328839	         -0.44661474	         -0.17480477	         -0.00079955	          0.00000000	         -0.00045916	          0.00000000	          1.55943592	          0.00000000	          0.00000000	          0.03340983	          0.00000000	
          3.48500000	         41.83400981	        798.82995485	         60.22326372	         -0.22602478	          0.00000000	         -0.10338550	         -0.13780996	         -0.99911000	         -0.27541029	         -0.00129326	          0.00000000	         -0.00073791	          0.00000000	          1.49777606	          0.00000000	          0.00000000	          0.04475414	          0.00000000	
          3.49000000	         44.81429710	        803.85869608	         60.76532798	         -0.22476634	          0.00000000	         -0.10338405	         -0.15905256	         -1.73744158	         -0.39832667	         -0.00190364	          0.00000000	         -0.00108159	          0.00000000	          1.44077191	          0.00000000	          0.00000000	          0.05692478	          0.00000000	
          3.49500000	         47.85696404	        808.86299232	         61.28192570	         -0.22357083	          0.00000000	         -0.10337060	         -0.17256220	         -2.67450554	         -0.54087511	         -0.00262068	          0.00000000	         -0.00148413	          0.00000000	          1.38939112	          0.00000000	          0.00000000	          0.06888300	          0.00000000	
          3.50000000	         50.96822099	        813.78688958	         61.78354916	         -0.22244257	          0.00000000	         -0.10334775	         -0.17234709	         -3.80590242	         -0.69645717	         -0.00341562	          0.00000000	         -0.00192881	          0.00000000	          1.34438638	          0.00000000	          0.00000000	          0.07903520	          0.00000000	
          3.50500000	         54.15823414	        818.57361409	         62.28161633	         -0.22138479	          0.00000000	         -0.10331806	         -0.15075641	         -5.10080513	         -0.85317596	         -0.00423399	          0.00000000	         -0.00238435	          0.00000000	          1.30646672	          0.00000000	          0.00000000	          0.08511908	          0.00000000	
          3.51000000	         57.43911561	        823.16818131	         62.78595773	         -0.22039948	          0.00000000	         -0.10328365	         -0.09849585	         -6.49097763	         -0.99233950	         -0.00498797	          0.00000000	         -0.00280065	          0.00000000	          1.27642755	          0.00000000	          0.00000000	          0.08410859	          0.00000000	
          3.51500000	         60.82110810	        827.51307448	         63.30328152	         -0.21948722	          0.00000000	         -0.10324711	         -0.00485449	         -7.85826462	         -1.08696497	         -0.00554855	          0.00000000	         -0.00310443	          0.00000000	          1.25462975	          0.00000000	          0.00000000	          0.07215989	          0.00000000	
          3.52000000	         64.30956949	        831.54671012	         63.83807025	         -0.21864671	          0.00000000	         -0.10321036	          0.14176665	         -9.02123951	         -1.10046871	         -0.00573842	          0.00000000	         -0.00319527	          0.00000000	          1.24049990	          0.00000000	          0.00000000	          0.04462800	          0.00000000	
          3.52500000	         67.90679753	        835.20616767	         64.39258279	         -0.21787546	          0.00000000	         -0.10317360	          0.35292087	         -9.72218682	         -0.98580748	         -0.00532679	          0.00000000	         -0.00294285	          0.00000000	          1.23270992	          0.00000000	          0.00000000	         -0.00380856	          0.00000000	
          3.53000000	         71.61528436	        838.42948486	         64.96508783	         -0.21717036	          0.00000000	         -0.10313507	          0.63866542	         -9.61621119	         -0.68542934	         -0.00402796	          0.00000000	         -0.00218631	          0.00000000	          1.22934635	          0.00000000	          0.00000000	         -0.07886985	          0.00000000	
          3.53500000	         75.43684570	        841.15561871	         65.54912884	         -0.21652718	          0.00000000	         -0.10309288	          1.00548430	         -8.26500608	         -0.13249307	         -0.00150583	          0.00000000	         -0.00073693	          0.00000000	          1.22852215	          0.00000000	          0.00000000	         -0.18619204	          0.00000000	
